<svg width="32" height="26" viewBox="0 0 32 26" fill="none" xmlns="http://www.w3.org/2000/svg">
<path d="M6.03419 4H2.96581C2.43237 4 2 4.43238 2 4.96581V7H7V4.96581C7 4.43238 6.56763 4 6.03419 4Z" fill="#B4D2E2"/>
<path d="M16 12L0 13V23.7465C0 24.9882 1.00619 26 2.2535 26H29.7464C30.9932 26 32 24.9889 32 23.7465V13L16 12Z" fill="#017297"/>
<path d="M16 25.2878C20.6944 25.2878 24.5 21.4822 24.5 16.7878C24.5 12.0933 20.6944 8.28775 16 8.28775C11.3056 8.28775 7.5 12.0933 7.5 16.7878C7.5 21.4822 11.3056 25.2878 16 25.2878Z" fill="#025F80"/>
<path d="M29.4245 12.8391V18.2737C29.4245 21.8296 26.5419 24.7123 22.9859 24.7123H0.217041C0.578291 25.4727 1.35304 26 2.25348 26H29.7464C30.9932 26 32 24.9889 32 23.7465V13L29.4245 12.8391Z" fill="#025F80"/>
<path d="M32 8.2535C32 7.00894 30.9911 6 29.7465 6H26.1931C26.0747 6 25.9666 5.93312 25.9136 5.82725L23.6229 1.24569C23.2411 0.48225 22.4608 0 21.6073 0H10.3927C9.53919 0 8.75887 0.48225 8.37712 1.24575L6.08638 5.82731C6.03344 5.93313 5.92525 6 5.80688 6H2.2535C1.00894 6 0 7.00894 0 8.2535V13H32V8.2535Z" fill="#01C0FA"/>
<path d="M29.7465 6H29.2076C29.3467 6.29275 29.4246 6.62019 29.4246 6.96581V13H32V8.2535C32 7.00894 30.991 6 29.7465 6Z" fill="#08A9F1"/>
<path d="M16 24C20.6944 24 24.5 20.1944 24.5 15.5C24.5 10.8056 20.6944 7 16 7C11.3056 7 7.5 10.8056 7.5 15.5C7.5 20.1944 11.3056 24 16 24Z" fill="#B4D2E2"/>
<path d="M16 22C19.5899 22 22.5 19.0899 22.5 15.5C22.5 11.9101 19.5899 9 16 9C12.4101 9 9.5 11.9101 9.5 15.5C9.5 19.0899 12.4101 22 16 22Z" fill="#017297"/>
<path d="M17.5446 9.18463C18.9975 10.3767 19.9245 12.1862 19.9245 14.2123C19.9245 17.8021 17.0144 20.7123 13.4245 20.7123C12.8923 20.7123 12.3749 20.6483 11.8799 20.5276C13.0013 21.4478 14.4361 22 15.9999 22C19.5898 22 22.4999 19.0899 22.4999 15.5C22.4999 12.4424 20.3888 9.87788 17.5446 9.18463Z" fill="#025F80"/>
<path d="M16 17C16.8284 17 17.5 16.3284 17.5 15.5C17.5 14.6716 16.8284 14 16 14C15.1716 14 14.5 14.6716 14.5 15.5C14.5 16.3284 15.1716 17 16 17Z" fill="#024C67"/>
<path d="M18.8285 15.1716C20.2092 15.1716 21.3285 14.0523 21.3285 12.6716C21.3285 11.2909 20.2092 10.1716 18.8285 10.1716C17.4478 10.1716 16.3285 11.2909 16.3285 12.6716C16.3285 14.0523 17.4478 15.1716 18.8285 15.1716Z" fill="white"/>
<path d="M21.3285 12.6716C21.3285 11.9822 21.0494 11.3579 20.5981 10.9057C20.5965 10.9041 20.595 10.9026 20.5934 10.901C20.1412 10.4503 19.5174 10.1716 18.8285 10.1716C18.7275 10.1716 18.6281 10.1776 18.5303 10.1892C19.4035 11.2958 19.9246 12.6932 19.9246 14.2123C19.9246 14.4577 19.911 14.6999 19.8845 14.9383C20.7374 14.5402 21.3285 13.6749 21.3285 12.6716Z" fill="#F2FBFF"/>
<path d="M29.6875 11H26.3125C26.1399 11 26 10.8601 26 10.6875V8.3125C26 8.13994 26.1399 8 26.3125 8H29.6875C29.8601 8 30 8.13994 30 8.3125V10.6875C30 10.8601 29.8601 11 29.6875 11Z" fill="white"/>
<path d="M30 10.6875V8.3125C30 8.13994 29.8601 8 29.6875 8H29.4246V11H29.6875C29.8601 11 30 10.8601 30 10.6875Z" fill="#F2FBFF"/>
<path d="M4 22C4.82843 22 5.5 21.3284 5.5 20.5C5.5 19.6716 4.82843 19 4 19C3.17157 19 2.5 19.6716 2.5 20.5C2.5 21.3284 3.17157 22 4 22Z" fill="#FD4755"/>
<path d="M16 20.4688C13.2603 20.4688 11.0312 18.2398 11.0312 15.5C11.0312 13.3636 12.3908 11.4708 14.4143 10.7898C14.6596 10.7074 14.9255 10.8392 15.0081 11.0845C15.0906 11.3299 14.9586 11.5957 14.7133 11.6783C13.0717 12.2308 11.9688 13.7666 11.9688 15.5C11.9688 17.7228 13.7772 19.5313 16 19.5313C17.7334 19.5313 19.2692 18.4283 19.8217 16.7866C19.9043 16.5413 20.1701 16.4092 20.4154 16.4919C20.6608 16.5744 20.7928 16.8403 20.7102 17.0856C20.0293 19.1092 18.1364 20.4688 16 20.4688Z" fill="#025F80"/>
<path d="M20.4154 16.4919C20.1701 16.4093 19.9042 16.5413 19.8216 16.7866C19.4465 17.9014 18.6179 18.7678 17.5819 19.2091C16.9303 19.7518 16.171 20.1694 15.3407 20.4252C15.5564 20.4539 15.7765 20.4688 15.9999 20.4688C18.1363 20.4688 20.0292 19.1092 20.7102 17.0857C20.7928 16.8403 20.6608 16.5744 20.4154 16.4919Z" fill="#024C67"/>
<path d="M21 5.46875H11C10.7411 5.46875 10.5312 5.25888 10.5312 5C10.5312 4.74112 10.7411 4.53125 11 4.53125H21C21.2589 4.53125 21.4688 4.74112 21.4688 5C21.4688 5.25888 21.2589 5.46875 21 5.46875Z" fill="#08A9F1"/>
</svg>
