<svg width="32" height="32" viewBox="0 0 32 32" fill="none" xmlns="http://www.w3.org/2000/svg">
<g clip-path="url(#clip0_17_525)">
<path d="M31.7254 7.86056C32.0916 7.49438 32.0915 6.90082 31.7254 6.53475L29.0738 3.88313L26.4221 1.2315C26.0561 0.86544 25.4625 0.865315 25.0963 1.2315L1.23146 25.0963C0.865394 25.4624 0.865394 26.0561 1.23146 26.4221L3.88308 29.0738L6.53471 31.7254C6.90077 32.0914 7.49446 32.0914 7.86052 31.7254L9.84927 29.7366L9.18633 27.7479L11.1751 28.4108L12.5009 27.085L11.838 25.0963L13.8267 25.7592L25.7591 13.8268L25.0962 11.838L27.085 12.5009L28.4108 11.1751L27.7478 9.18638L29.7366 9.84931L31.7254 7.86056Z" fill="#FFDA2D"/>
<path d="M7.86056 31.7254L9.84931 29.7367L9.18637 27.7479L11.1751 28.4109L12.5009 27.0851L11.838 25.0963L13.8267 25.7592L25.7592 13.8268L25.0962 11.8381L27.085 12.501L28.4108 11.1752L27.7479 9.18643L29.7366 9.84937L31.7254 7.86062C32.0916 7.49443 32.0914 6.90087 31.7254 6.53481L29.0737 3.88312L3.88306 29.0738L6.53468 31.7254C6.90081 32.0915 7.49443 32.0915 7.86056 31.7254Z" fill="#FDBF00"/>
<path d="M26.422 7.86057C26.0556 8.227 26.0556 8.82 26.422 9.18638L28.4108 11.1751L29.7366 9.84932L27.7479 7.86057C27.3814 7.49419 26.7884 7.49419 26.422 7.86057Z" fill="#384949"/>
<path d="M23.7704 10.5123C23.404 10.8787 23.404 11.4717 23.7704 11.8381L25.7592 13.8268L27.085 12.501L25.0962 10.5123C24.7299 10.1458 24.1369 10.1458 23.7704 10.5123Z" fill="#384949"/>
<path d="M10.5121 23.7705C10.1457 24.1369 10.1457 24.7299 10.5121 25.0963L12.5009 27.0851L13.8267 25.7592L11.8379 23.7705C11.4716 23.4041 10.8786 23.4041 10.5121 23.7705Z" fill="#384949"/>
<path d="M7.86052 26.4221C7.49408 26.7886 7.49408 27.3816 7.86052 27.7479L9.84927 29.7367L11.1751 28.4109L9.18633 26.4221C8.8199 26.0557 8.2269 26.0557 7.86052 26.4221Z" fill="#384949"/>
<path d="M25.872 19.2438L10.2148 3.58569H7.56319L5.57444 5.57444L3.58569 7.56319V10.2148L19.2429 25.8729H21.8946L23.8833 23.8842L25.872 21.8954V19.2438Z" fill="#FF7CB9"/>
<path d="M25.872 19.2438L10.2148 3.58569H7.56321L5.57446 5.57444L23.8833 23.8842L25.872 21.8954V19.2438Z" fill="#FF3980"/>
<path d="M6.23743 4.91156L5.5745 5.57444L4.91162 6.23737L23.2204 24.5471L23.8834 23.8842L24.5462 23.2212L6.23743 4.91156Z" fill="#FF3980"/>
<path d="M5.57251 5.57611L6.23532 4.9133L24.5418 23.2198L23.879 23.8826L5.57251 5.57611Z" fill="#E30A6C"/>
<path d="M31.1785 24.5503L29.8495 23.2213H27.1978L25.2091 25.21L23.2203 27.1988V29.8504L24.5462 31.1762C25.6428 32.2728 27.425 32.2748 28.5191 31.1808L29.8495 29.8504L31.1798 28.52C32.2739 27.4259 32.2732 25.6451 31.1785 24.5503Z" fill="#4A696F"/>
<path d="M31.1785 24.5503L29.8495 23.2213H27.1979L25.2091 25.21L29.8495 29.8504L31.1799 28.52C32.2739 27.4259 32.2732 25.6451 31.1785 24.5503Z" fill="#384949"/>
<path d="M9.55196 2.92281C9.4459 2.81674 9.32659 2.75037 9.19403 2.69743L1.23909 0.0458068C0.894278 -0.0603182 0.52309 0.0192443 0.271153 0.271119C0.0192154 0.522994 -0.0602846 0.894244 0.0457779 1.23906L2.6974 9.19399C2.7504 9.32649 2.81665 9.44581 2.92278 9.55193L3.58572 10.2149L6.90028 6.90031L10.2148 3.58574L9.55196 2.92281Z" fill="#FED2A4"/>
<path d="M9.55193 2.92281C9.44587 2.81674 9.32656 2.75037 9.19399 2.69743L1.23906 0.0458068C0.894243 -0.0603182 0.523056 0.0192443 0.271118 0.271119L6.90024 6.90024L10.2148 3.58568L9.55193 2.92281Z" fill="#FFBD86"/>
<path d="M25.872 19.2438L22.5575 22.5584L19.2429 25.8729L23.2204 29.8504L26.535 26.5358L29.8495 23.2212L25.872 19.2438Z" fill="#E3F6FF"/>
<path d="M22.5529 22.5587L25.8669 19.2447L29.8438 23.2216L26.5297 26.5356L22.5529 22.5587Z" fill="#BBECFF"/>
</g>
<defs>
<clipPath id="clip0_17_525">
<rect width="32" height="32" fill="white"/>
</clipPath>
</defs>
</svg>
