<svg width="26" height="30" viewBox="0 0 26 30" fill="none" xmlns="http://www.w3.org/2000/svg">
<path fill-rule="evenodd" clip-rule="evenodd" d="M3.85872 12.995C3.4131 14.5269 3.24997 14.6694 3.12685 16.24C2.91872 18.895 3.78747 21.4462 5.71685 23.37C9.2281 26.8706 14.9075 26.8762 18.4137 23.37C20.0381 21.7456 21.0431 19.5006 21.0431 17.0219C21.0431 16.815 21.2112 16.6469 21.4181 16.6469H23.7537C23.9606 16.6469 24.1287 16.815 24.1287 17.0219C24.1287 23.6844 18.7275 29.0856 12.065 29.0856C5.40247 29.0856 0.0012207 23.6844 0.0012207 17.0219C0.0012207 15.6387 0.237471 14.2994 0.674971 13.0475C0.691846 13.03 0.709346 13.0125 0.726221 12.9956H3.85872V12.995Z" fill="#7DA31D"/>
<path fill-rule="evenodd" clip-rule="evenodd" d="M11.7875 25.9925C14.1769 26.0669 16.5888 25.1937 18.4125 23.37C20.0369 21.7456 21.0419 19.5006 21.0419 17.0219C21.0419 16.815 21.21 16.6469 21.4169 16.6469H23.19C23.3969 16.6469 23.565 16.815 23.565 17.0219C23.565 23.5906 18.315 28.9325 11.7825 29.0819C5.25 28.9325 0 23.59 0 17.0219C0 15.6387 0.23625 14.2994 0.67375 13.0475C0.690625 13.03 0.708125 13.0125 0.725 12.9956H3.295C2.84938 14.5275 2.68625 14.67 2.56313 16.2406C2.355 18.8956 3.22375 21.4469 5.15313 23.3706C6.98125 25.1931 9.39625 26.0675 11.7869 25.9931L11.7875 25.9925Z" fill="#ABD641"/>
<path fill-rule="evenodd" clip-rule="evenodd" d="M6.67188 6.11126H19.4244V5.14001C19.4244 4.93314 19.5925 4.76501 19.7994 4.76501C19.8769 4.76501 19.9494 4.78876 20.0087 4.82876L23.9462 7.20127C24.1231 7.30814 24.1806 7.53814 24.0737 7.71564C24.04 7.77189 23.9937 7.81564 23.9412 7.84626L19.9931 10.2256C19.8162 10.3325 19.5856 10.2756 19.4788 10.0981C19.4425 10.0375 19.425 9.97064 19.425 9.90501V8.93377H6.67188C6.465 8.93377 6.29688 8.76564 6.29688 8.55877V6.48689C6.29688 6.28001 6.465 6.11189 6.67188 6.11189V6.11126Z" fill="#7DA31D"/>
<path fill-rule="evenodd" clip-rule="evenodd" d="M24.0781 7.70814L24.0737 7.71564C24.04 7.77189 23.9937 7.81564 23.9412 7.84626L19.9931 10.2256C19.8162 10.3325 19.5856 10.2756 19.4787 10.0981C19.4475 10.0463 19.4306 9.99002 19.4262 9.93377V9.30814H19.425V8.93314H6.67185C6.47622 8.93314 6.3156 8.78314 6.2981 8.59189V6.86126C6.2981 6.65439 6.46622 6.48626 6.6731 6.48626H19.4256V5.51501C19.4256 5.30814 19.5937 5.14001 19.8006 5.14001C19.8781 5.14001 19.9506 5.16376 20.01 5.20376L23.9475 7.57627C24.0031 7.61002 24.0468 7.65564 24.0775 7.70814H24.0781Z" fill="#ABD641"/>
<path fill-rule="evenodd" clip-rule="evenodd" d="M2.30627 1.34625H15.0588V0.375C15.0588 0.168125 15.2269 0 15.4338 0C15.5113 0 15.5838 0.02375 15.6432 0.06375L19.5807 2.43625C19.7575 2.54313 19.815 2.77313 19.7081 2.95063C19.6744 3.00688 19.6281 3.05063 19.5756 3.08125L15.6275 5.46063C15.4507 5.5675 15.22 5.51063 15.1131 5.33313C15.0769 5.2725 15.0594 5.20563 15.0594 5.14V4.16875H2.30627C2.0994 4.16875 1.93127 4.00063 1.93127 3.79375V1.72125C1.93127 1.51438 2.0994 1.34625 2.30627 1.34625Z" fill="#7DA31D"/>
<path fill-rule="evenodd" clip-rule="evenodd" d="M15.0588 1.34626V0.838135C15.0588 0.63126 15.2269 0.463135 15.4338 0.463135C15.5113 0.463135 15.5838 0.486885 15.6432 0.526885L19.5807 2.89938C19.6207 2.92376 19.6544 2.95376 19.6819 2.98813C19.6519 3.02626 19.6157 3.05688 19.5757 3.08063L15.6275 5.46001C15.4507 5.56688 15.22 5.51001 15.1132 5.33251C15.0769 5.27188 15.0594 5.20501 15.0594 5.13939V4.16813H2.30627C2.0994 4.16813 1.93127 4.00001 1.93127 3.79313V2.18438C1.93127 1.97751 2.0994 1.80938 2.30627 1.80938H15.0588V1.34626Z" fill="#ABD641"/>
<path fill-rule="evenodd" clip-rule="evenodd" d="M25.5919 13.34L24.9213 14.5013C24.9175 14.5081 24.9138 14.5144 24.9094 14.5206L24.2506 15.6613C24.1819 15.7813 24.0563 15.8488 23.9269 15.8488V15.85H21.245C21.0938 15.85 20.9631 15.76 20.9038 15.6306L20.2513 14.5006L19.5807 13.34C19.5069 13.2125 19.5169 13.06 19.5931 12.945L20.2513 11.805L20.9219 10.6438C20.9906 10.5238 21.1163 10.4563 21.2456 10.4563V10.455H23.9275C24.0788 10.455 24.2094 10.545 24.2688 10.6744L24.9219 11.8056L25.5925 12.9669C25.6613 13.0869 25.6563 13.2288 25.5925 13.34H25.5919Z" fill="#353E99"/>
<path fill-rule="evenodd" clip-rule="evenodd" d="M23.6088 15.85H21.2456C21.0944 15.85 20.9638 15.76 20.9044 15.6306L20.2519 14.5006L19.5813 13.34C19.5075 13.2125 19.5175 13.06 19.5938 12.945L20.2519 11.805L20.9225 10.6438C20.9913 10.5238 21.1169 10.4563 21.2463 10.4563V10.455H23.6094C23.7606 10.455 23.8913 10.545 23.9506 10.6744L24.6038 11.8056L25.2744 12.9669C25.3431 13.0869 25.3381 13.2288 25.2744 13.34C25.2106 13.4513 24.6038 14.5019 24.6038 14.5019C24.6 14.5088 24.5963 14.515 24.5919 14.5213L23.9331 15.6619C23.8644 15.7819 23.7388 15.8494 23.6094 15.8494V15.8506L23.6088 15.85Z" fill="#5D64B4"/>
<path fill-rule="evenodd" clip-rule="evenodd" d="M22.5863 11.6094C23.0125 11.6094 23.3982 11.7819 23.6775 12.0612C23.9569 12.3406 24.1294 12.7263 24.1294 13.1525C24.1294 13.5788 23.9569 13.9644 23.6775 14.2438C23.3982 14.5231 23.0125 14.6956 22.5863 14.6956C22.16 14.6956 21.7744 14.5231 21.495 14.2438C21.2157 13.9644 21.0432 13.5788 21.0432 13.1525C21.0432 12.7263 21.2157 12.3406 21.495 12.0612C21.7744 11.7819 22.16 11.6094 22.5863 11.6094Z" fill="#EDDBA5"/>
<path fill-rule="evenodd" clip-rule="evenodd" d="M22.5063 14.6938C22.1119 14.6738 21.7569 14.5056 21.495 14.2438C21.2157 13.9644 21.0432 13.5788 21.0432 13.1525C21.0432 12.7263 21.2157 12.3406 21.495 12.0613C21.7569 11.7994 22.1119 11.6313 22.5063 11.6113C22.9007 11.6313 23.2557 11.7994 23.5175 12.0613C23.7969 12.3406 23.9694 12.7263 23.9694 13.1525C23.9694 13.5788 23.7969 13.9644 23.5175 14.2438C23.2557 14.5056 22.9007 14.6738 22.5063 14.6938Z" fill="#FFF0C4"/>
</svg>
