<svg width="32" height="32" viewBox="0 0 32 32" fill="none" xmlns="http://www.w3.org/2000/svg">
<path d="M23.4741 32H2.74006C1.22675 32 0 30.7733 0 29.2599V2.74006C0 1.22675 1.22675 0 2.74006 0H23.474C24.9873 0 26.2141 1.22675 26.2141 2.74006V29.2599C26.2141 30.7732 24.9874 32 23.4741 32Z" fill="#FBF1CF"/>
<path d="M0 2.74006V29.2599C0 30.7732 1.22675 32 2.74006 32H12.6287L12.6289 31.9999C6.92988 26.5979 5.59381 9.65219 6.31169 0H2.74006C1.22675 0 0 1.22675 0 2.74006Z" fill="#F5E2A2"/>
<path d="M18.3454 2.90637H8.07711C7.5473 2.90637 7.1178 3.33587 7.1178 3.86568V5.53718C7.1178 6.067 7.5473 6.4965 8.07711 6.4965H18.3454C18.8752 6.4965 19.3047 6.067 19.3047 5.53718V3.86568C19.3047 3.33587 18.8752 2.90637 18.3454 2.90637Z" fill="#B39BDB"/>
<path d="M21.3659 11.1152H18.4193C18.1603 11.1152 17.9505 10.9054 17.9505 10.6465C17.9505 10.3875 18.1603 10.1777 18.4193 10.1777H21.3659C21.6248 10.1777 21.8346 10.3875 21.8346 10.6465C21.8346 10.9054 21.6248 11.1152 21.3659 11.1152Z" fill="#4E5660"/>
<path d="M15.524 11.1152H4.84827C4.58933 11.1152 4.37952 10.9054 4.37952 10.6465C4.37952 10.3875 4.58933 10.1777 4.84827 10.1777H15.524C15.7829 10.1777 15.9927 10.3875 15.9927 10.6465C15.9928 10.9054 15.7829 11.1152 15.524 11.1152Z" fill="#4E5660"/>
<path d="M21.3659 14.6761H10.11C9.85111 14.6761 9.6413 14.4662 9.6413 14.2073C9.6413 13.9484 9.85111 13.7386 10.11 13.7386H21.366C21.6249 13.7386 21.8347 13.9484 21.8347 14.2073C21.8347 14.4662 21.6249 14.6761 21.3659 14.6761Z" fill="#4E5660"/>
<path d="M7.2147 14.6761H4.84827C4.58933 14.6761 4.37952 14.4662 4.37952 14.2073C4.37952 13.9484 4.58933 13.7386 4.84827 13.7386H7.21464C7.47358 13.7386 7.68339 13.9484 7.68339 14.2073C7.68345 14.4662 7.47358 14.6761 7.2147 14.6761Z" fill="#4E5660"/>
<path d="M21.3659 18.2368H14.431C14.172 18.2368 13.9622 18.027 13.9622 17.7681C13.9622 17.5092 14.172 17.2993 14.431 17.2993H21.3659C21.6248 17.2993 21.8347 17.5092 21.8347 17.7681C21.8347 18.027 21.6248 18.2368 21.3659 18.2368Z" fill="#4E5660"/>
<path d="M11.5357 18.2368H4.84827C4.58933 18.2368 4.37952 18.027 4.37952 17.7681C4.37952 17.5092 4.58933 17.2993 4.84827 17.2993H11.5357C11.7946 17.2993 12.0045 17.5092 12.0045 17.7681C12.0045 18.027 11.7946 18.2368 11.5357 18.2368Z" fill="#4E5660"/>
<path d="M9.23089 21.7977H4.84827C4.58933 21.7977 4.37952 21.5879 4.37952 21.329C4.37952 21.07 4.58933 20.8602 4.84827 20.8602H9.23089C9.48983 20.8602 9.69964 21.07 9.69964 21.329C9.69964 21.5879 9.48983 21.7977 9.23089 21.7977Z" fill="#4E5660"/>
<path d="M17.4817 25.7085C14.0077 29.1825 11.9792 29.6255 11.1154 28.7616C10.2515 27.8978 10.6945 25.8693 14.1685 22.3953L17.4817 25.7085Z" fill="#EED076"/>
<path d="M15.6628 27.3667C16.2186 26.9146 16.8243 26.366 17.4818 25.7085L14.1686 22.3953C13.5111 23.0528 12.9624 23.6584 12.5103 24.2142L15.6628 27.3667Z" fill="#EDA749"/>
<path d="M11.5431 25.5526C10.545 27.1589 10.5572 28.2034 11.1153 28.7616C11.6735 29.3197 12.718 29.3319 14.3244 28.3339L11.5431 25.5526Z" fill="#4E5660"/>
<path d="M29.8808 14.9941C26.3365 19.2514 23.4827 22.7236 17.7703 26.4662C17.2857 26.7837 16.644 26.7164 16.2344 26.3067L13.5703 23.6426C13.1607 23.2329 13.0933 22.5912 13.4108 22.1067C17.1533 16.3943 20.6256 13.5406 24.8828 9.99624C25.3695 9.59112 26.0852 9.62337 26.5329 10.0711L29.806 13.3441C30.2537 13.7919 30.2859 14.5075 29.8808 14.9941Z" fill="#8DAEE1"/>
<path d="M20.8721 24.2531C18.1841 22.2899 17.964 18.2826 18.4364 15.7654C16.7511 17.5118 15.1087 19.5149 13.4108 22.1066C13.0933 22.5913 13.1606 23.2329 13.5703 23.6426L16.2344 26.3066C16.644 26.7163 17.2857 26.7836 17.7703 26.4661C18.9085 25.7206 19.9328 24.9856 20.8721 24.2531Z" fill="#6A95D6"/>
<path d="M31.7118 9.31606L30.5609 8.16525C30.1766 7.78094 29.5536 7.78094 29.1693 8.16525L26.8981 10.4364L29.4406 12.9789L31.7118 10.7077C32.0961 10.3234 32.0961 9.70037 31.7118 9.31606Z" fill="#A2DDFD"/>
<path d="M27.8091 9.51968L30.3512 12.0618L29.4387 12.9743L26.8966 10.4322L27.8091 9.51968Z" fill="#7ACDF9"/>
<path d="M20.5682 13.6964L26.1806 19.3088C26.3919 19.0778 26.6011 18.8454 26.809 18.6112L21.2657 13.068C21.0316 13.2759 20.7991 13.4851 20.5682 13.6964Z" fill="#EED076"/>
<path d="M22.4625 22.9017L22.1491 22.5883C21.6562 22.0954 21.6562 21.2962 22.1491 20.8033L26.7526 16.1998C27.2456 15.7069 28.0447 15.7069 28.5376 16.1998L28.851 16.5132C29.3439 17.0061 29.3439 17.8053 28.851 18.2982L24.2475 22.9017C23.7546 23.3946 22.9554 23.3946 22.4625 22.9017Z" fill="#4E5660"/>
</svg>
