<svg width="32" height="32" viewBox="0 0 32 32" fill="none" xmlns="http://www.w3.org/2000/svg">
<path d="M14.7985 16.8371C15.3153 17.2105 15.9507 17.4307 16.6378 17.4307H22.515V20.2805L26.2405 17.4307H27.8477C29.5803 17.4307 30.9848 16.0305 30.9848 14.3032V3.1275C30.9848 1.40021 29.5803 0 27.8477 0H16.6377C14.9051 0 13.5006 1.40021 13.5006 3.1275V16.8371H14.7985Z" fill="#F7F3F1"/>
<path d="M27.8476 0H25.1606C26.8932 0 28.2977 1.40027 28.2977 3.1275V14.3032C28.2977 16.0305 26.8932 17.4307 25.1607 17.4307H23.5534L22.5149 18.2251V20.2805L26.2404 17.4307H27.8476C29.5802 17.4307 30.9847 16.0305 30.9847 14.3032V3.1275C30.9848 1.40027 29.5802 0 27.8476 0Z" fill="#EFE7E3"/>
<path d="M19.8254 12.8466L20.1487 13.1083C20.6614 13.5233 21.301 13.7497 21.9605 13.7497H26.5507C26.9858 13.7497 27.3362 13.3867 27.3155 12.947C27.2961 12.5352 27.3164 8.78474 27.3164 8.36192C27.3164 7.93909 26.9736 7.59623 26.5507 7.59623L23.4381 7.58683L23.8192 6.68427C24.2152 5.74641 24.1512 4.67747 23.646 3.79358C23.3722 3.3703 22.7072 3.52605 22.6943 4.04636C22.6943 4.85576 22.3988 5.63728 21.8633 6.24418L19.8785 8.49004H19.1549V12.8465L19.8254 12.8466Z" fill="#FFD36C"/>
<path d="M19.5155 13.5372H17.4198C17.2813 13.5372 17.1689 13.4249 17.1689 13.2864V7.94396C17.1689 7.80547 17.2812 7.69312 17.4198 7.69312H19.5155C19.654 7.69312 19.7664 7.8054 19.7664 7.94396V13.2864C19.7663 13.4248 19.654 13.5372 19.5155 13.5372Z" fill="#8EE6F3"/>
<path d="M14.803 22.4378V11.1585C14.803 9.79636 13.6954 8.69214 12.329 8.69214H3.48905C2.12277 8.69214 1.01514 9.79636 1.01514 11.1585V19.9715C1.01514 21.3336 2.12271 22.4378 3.48905 22.4378H8.34539V24.7061L11.2833 22.4378H14.803Z" fill="#72D1FB"/>
<path d="M12.3291 8.69214H8.82593C10.1922 8.69214 11.2998 9.79636 11.2998 11.1585V22.4378H14.803V11.1585C14.803 9.79636 13.6954 8.69214 12.3291 8.69214Z" fill="#62A6FD"/>
<path d="M11.151 16.2896H9.37308L9.56785 15.1116H11.151C11.7739 15.1116 11.7739 14.1458 11.151 14.1458H9.72753L9.99344 12.5375C10.095 11.923 9.14225 11.7654 9.04059 12.38L8.74866 14.1458H7.58372L7.84963 12.5375C7.95124 11.923 6.99858 11.7653 6.89678 12.38L6.60485 14.1458H4.66728C4.04434 14.1458 4.04434 15.1116 4.66728 15.1116H6.44518L6.25041 16.2896H4.66728C4.04434 16.2896 4.04434 17.2554 4.66728 17.2554H6.09073L5.82481 18.8637C5.72424 19.4717 6.67587 19.6367 6.77767 19.0212L7.06959 17.2554H8.23454L7.96862 18.8637C7.86805 19.4717 8.81968 19.6367 8.92147 19.0212L9.2134 17.2554H11.151C11.7739 17.2554 11.7739 16.2896 11.151 16.2896ZM8.39421 16.2896H7.22934L7.42411 15.1116H8.58905L8.39421 16.2896Z" fill="#F7F3F1"/>
<path d="M19.5885 20.6357H13.3152C12.3456 20.6357 11.5596 21.4193 11.5596 22.3859V28.64C11.5596 29.6066 12.3456 30.3902 13.3152 30.3902H16.7615V32L18.8464 30.3903H19.5885C20.5581 30.3903 21.3441 29.6067 21.3441 28.6401V22.386C21.3441 21.4193 20.5581 20.6357 19.5885 20.6357Z" fill="#FA9084"/>
<path d="M19.5885 20.6357H16.8843C17.8539 20.6357 18.6399 21.4193 18.6399 22.3859V28.6401C18.6399 29.6067 17.8539 30.3903 16.8843 30.3903H16.7615V32L18.8464 30.3903H19.5885C20.5581 30.3903 21.3441 29.6067 21.3441 28.6401V22.3859C21.3441 21.4193 20.5581 20.6357 19.5885 20.6357Z" fill="#FF6CB5"/>
<path d="M16.4519 27.638C17.9615 26.8378 18.7436 26.1568 18.7436 25.1019C18.7436 23.6469 16.9611 23.2831 16.4519 24.3744C15.8698 23.2468 14.1602 23.6469 14.1602 25.1019C14.1602 26.1568 14.9423 26.8377 16.4519 27.638Z" fill="#F7F3F1"/>
</svg>
